<?xml version="1.0" standalone="no"?>
<!DOCTYPE svg PUBLIC "-//W3C//DTD SVG 20010904//EN"
 "http://www.w3.org/TR/2001/REC-SVG-20010904/DTD/svg10.dtd">
<svg version="1.0" xmlns="http://www.w3.org/2000/svg"
 width="512.000000pt" height="512.000000pt" viewBox="0 0 512.000000 512.000000"
 preserveAspectRatio="xMidYMid meet">
<metadata>
Created by potrace 1.14, written by Peter Selinger 2001-2017
</metadata>
<g transform="translate(0.000000,512.000000) scale(0.100000,-0.100000)"
fill="#000000" stroke="none">
<path d="M1315 3304 c-11 -2 -45 -9 -75 -15 -178 -36 -296 -166 -353 -388 -19
-75 -22 -112 -22 -296 0 -172 3 -220 18 -264 22 -69 22 -90 0 -98 -10 -3 -37
-14 -60 -24 -23 -11 -44 -19 -47 -19 -22 0 -192 -112 -237 -156 -79 -78 -133
-207 -158 -374 -28 -190 -33 -240 -27 -276 3 -21 9 -58 12 -81 6 -40 25 -56
38 -34 3 4 28 11 56 15 l50 7 0 122 c0 149 11 233 47 357 26 91 30 98 93 160
62 62 115 95 242 150 62 27 82 25 103 -7 64 -97 172 -171 290 -199 83 -19 222
-15 301 10 76 24 166 87 220 154 27 34 56 61 64 61 22 1 162 -62 223 -100 85
-53 124 -96 152 -168 44 -117 67 -253 69 -403 l1 -136 44 -7 c24 -4 52 -12 63
-18 34 -21 39 7 35 188 -6 253 -53 437 -138 542 -62 76 -185 158 -319 214 -30
12 -59 25 -63 29 -4 4 1 52 12 106 28 142 33 234 22 355 -11 112 -38 257 -51
274 -4 6 -13 27 -19 48 -19 58 -96 151 -158 193 -77 51 -164 74 -298 79 -60 2
-119 2 -130 -1z m270 -166 c73 -24 108 -49 146 -100 84 -116 121 -387 84 -604
-43 -247 -155 -384 -338 -414 -129 -20 -250 21 -334 115 -52 57 -83 119 -115
231 -20 69 -23 101 -22 244 2 351 83 502 292 545 84 18 206 10 287 -17z"/>
<path d="M3550 3287 c-179 -42 -294 -164 -351 -373 -16 -61 -22 -119 -26 -254
-5 -169 0 -228 33 -383 6 -24 2 -29 -32 -43 -219 -91 -349 -184 -402 -290 -58
-116 -102 -333 -102 -504 0 -65 3 -125 6 -134 7 -19 42 -20 94 -5 l38 11 5
157 c8 263 58 420 161 503 50 40 226 130 277 142 23 5 32 -2 73 -54 79 -100
187 -161 319 -181 194 -29 376 48 499 210 l25 33 87 -35 c143 -59 250 -136
287 -208 50 -99 96 -379 83 -506 -7 -62 -7 -62 22 -69 16 -4 47 -8 69 -8 l40
-1 3 110 c5 195 -30 395 -92 527 -49 103 -198 218 -379 290 -66 26 -63 13 -33
153 11 47 16 124 16 235 0 182 -18 297 -64 410 -48 119 -156 220 -270 256 -69
21 -312 28 -386 11z m354 -147 c146 -56 213 -188 231 -455 19 -282 -57 -513
-199 -609 -100 -68 -218 -84 -338 -45 -222 71 -333 360 -283 741 39 298 150
400 430 393 75 -2 114 -8 159 -25z"/>
<path d="M2197 2993 l-77 -78 80 -80 80 -80 0 48 0 47 275 0 275 0 0 65 0 65
-274 0 -275 0 -3 45 -3 46 -78 -78z"/>
<path d="M2840 2837 l0 -47 -275 0 -275 0 0 -65 0 -65 274 0 275 0 3 -45 3
-46 78 78 77 78 -80 80 -80 80 0 -48z"/>
</g>
</svg>
